<svg width="50" height="50" viewBox="0 0 50 50" fill="none" xmlns="http://www.w3.org/2000/svg">
<g clip-path="url(#clip0)">
<path d="M26.5783 35.6464H23.389C20.3114 35.6464 17.8077 33.1419 17.8077 30.0651H16.213C16.213 34.0222 19.4327 37.2411 23.389 37.2411H26.5783C30.5346 37.2411 33.7543 34.0222 33.7543 30.0651H32.1597C32.1597 33.1419 29.6559 35.6464 26.5783 35.6464Z" fill="#E7DFDD"/>
<path d="M19.4023 22.8891C20.2818 22.8891 20.997 23.6043 20.997 24.4838H22.5917C22.5917 22.7248 21.1613 21.2944 19.4023 21.2944C17.6434 21.2944 16.213 22.7248 16.213 24.4838H17.8077C17.8077 23.6043 18.5228 22.8891 19.4023 22.8891Z" fill="#E7DFDD"/>
<path d="M31.3623 21.2944C29.6034 21.2944 28.173 22.7248 28.173 24.4838H29.7677C29.7677 23.6043 30.4828 22.8891 31.3623 22.8891C32.2418 22.8891 32.957 23.6043 32.957 24.4838H34.5517C34.5517 22.7248 33.1213 21.2944 31.3623 21.2944Z" fill="#E7DFDD"/>
<path d="M43.3223 17.3077H42.4642C39.1935 11.355 32.9714 7.24686 25.781 6.96227V6.14508C25.781 5.4186 25.4979 4.73456 24.9836 4.22026L24.5172 3.75307C24.3035 3.53934 24.1863 3.25708 24.1863 2.95574C24.1863 2.6544 24.3035 2.37215 24.5165 2.15841L25.5474 1.12748L24.4199 0L23.389 1.03093C22.8747 1.54522 22.5916 2.22926 22.5916 2.95574C22.5916 3.68222 22.8747 4.36626 23.389 4.88055L23.8554 5.34774C24.0691 5.56148 24.1863 5.84374 24.1863 6.14508V6.96227C16.9959 7.24686 10.7737 11.355 7.50303 17.3077H6.64497C3.12782 17.3077 0.266296 20.1693 0.266296 23.6864V26.8758C0.266296 30.2045 2.83038 32.9418 6.0859 33.2256C7.16004 36.4317 9.04164 39.3349 11.6069 41.6545C10.4802 42.4938 9.8343 43.7887 9.8343 45.2144C9.8343 46.6425 10.4817 47.9397 11.6123 48.7795C11.6213 48.7865 11.6291 48.7927 11.6388 48.7985C12.7215 49.5908 14.0004 50 15.293 50C16.0374 50 16.788 49.8637 17.5063 49.5877L21.4046 48.0904C22.2529 49.1061 23.542 49.7559 24.9836 49.7559C26.4253 49.7559 27.7136 49.1061 28.5627 48.0904L32.4618 49.5877C33.1812 49.8645 33.9299 50 34.6751 50C35.9676 50 37.2458 49.5908 38.3292 48.7985C38.3382 48.7919 38.346 48.7857 38.3549 48.7795C39.4855 47.9405 40.133 46.6425 40.133 45.2144C40.133 43.7887 39.4871 42.4938 38.3604 41.6545C40.9256 39.3349 42.8065 36.4317 43.8814 33.2256C47.1369 32.9418 49.701 30.2045 49.701 26.8758V23.6864C49.701 20.1693 46.8395 17.3077 43.3223 17.3077ZM1.86096 26.8758V23.6864C1.86096 21.048 4.00652 18.9024 6.64497 18.9024H6.72011C5.64908 21.3462 5.0503 24.0411 5.0503 26.8758C5.0503 28.4681 5.24262 30.0316 5.60353 31.5426C3.46536 31.0656 1.86096 29.156 1.86096 26.8758ZM16.9344 48.0993C15.4849 48.6564 13.8665 48.4427 12.602 47.5266C12.5946 47.5212 12.5868 47.5153 12.5794 47.5099C11.8483 46.9757 11.429 46.1387 11.429 45.2144C11.429 44.2902 11.8483 43.4531 12.5786 42.9182C12.586 42.9124 12.5938 42.9069 12.6012 42.9015C13.8657 41.9862 15.4842 41.7716 16.9336 42.3288L20.6174 43.744C20.4523 44.2088 20.3593 44.7056 20.3593 45.2249C20.3593 45.7365 20.45 46.2271 20.6104 46.6865L16.9344 48.0993ZM24.9836 48.1612C23.3131 48.1612 21.9539 46.8441 21.9539 45.2249C21.9539 43.6054 23.3131 42.2891 24.9836 42.2891C26.6542 42.2891 28.0134 43.6054 28.0134 45.2249C28.0134 46.8441 26.6542 48.1612 24.9836 48.1612ZM37.3886 47.5107C37.3812 47.5165 37.3735 47.5219 37.3661 47.5274C36.1008 48.4427 34.4823 48.6572 33.0337 48.1001L29.3569 46.6872C29.5173 46.2278 29.608 45.7373 29.608 45.2257C29.608 44.7064 29.5142 44.2096 29.3499 43.7447L33.0337 42.3295C34.4839 41.7724 36.1015 41.9862 37.3661 42.9022C37.3735 42.9077 37.3812 42.9131 37.3886 42.919C38.119 43.4531 38.5383 44.2902 38.5383 45.2144C38.5383 46.1387 38.119 46.9757 37.3886 47.5107ZM36.8623 40.8388C35.4599 40.3043 33.9011 40.2891 32.461 40.8412L28.5494 42.3439C27.7003 41.3379 26.4171 40.6952 24.9836 40.6952C23.5502 40.6952 22.2669 41.3379 21.4178 42.3439L17.5055 40.8412C16.0662 40.2868 14.5073 40.3027 13.1042 40.8388C8.99648 37.3423 6.64497 32.2831 6.64497 26.8758C6.64497 16.7631 14.8718 8.53708 24.9836 8.53708C35.0955 8.53708 43.3223 16.7631 43.3223 26.8758C43.3223 32.2831 40.9708 37.3423 36.8623 40.8388ZM48.1063 26.8758C48.1063 29.156 46.5019 31.0656 44.363 31.5426C44.7247 30.0316 44.917 28.4681 44.917 26.8758C44.917 24.0411 44.3182 21.3462 43.2476 18.9024H43.3223C45.9608 18.9024 48.1063 21.048 48.1063 23.6864V26.8758Z" fill="#E7DFDD"/>
</g>
<defs>
<clipPath id="clip0">
<rect width="50" height="50" rx="3" fill="white"/>
</clipPath>
</defs>
</svg>
