<svg width="50" height="50" viewBox="0 0 50 50" fill="none" xmlns="http://www.w3.org/2000/svg">
<path d="M50 29.3945H46.9234C46.5755 24.0768 44.3398 19.1254 40.5369 15.3225C37.3447 12.1304 33.3431 10.043 28.9951 9.24835C29.2507 8.69179 29.3945 8.07343 29.3945 7.42188C29.3945 4.99878 27.4231 3.02734 25 3.02734C22.5769 3.02734 20.6055 4.99878 20.6055 7.42188C20.6055 8.07343 20.7493 8.69179 21.0045 9.24835C16.6569 10.043 12.6553 12.1304 9.46274 15.3225C5.66025 19.1254 3.42407 24.0768 3.07655 29.3945H0V32.3242H3.58696L6.51665 38.1836H20.0378L18.0847 44.043H14.7461V46.9727H35.2539V44.043H31.9153L29.9622 38.1836H43.4834L46.413 32.3242H50V29.3945ZM23.5352 7.42188C23.5352 6.6143 24.1924 5.95703 25 5.95703C25.8076 5.95703 26.4648 6.6143 26.4648 7.42188C26.4648 8.22945 25.8076 8.88672 25 8.88672C24.1924 8.88672 23.5352 8.22945 23.5352 7.42188ZM25 11.8164C35.0075 11.8164 43.2365 19.5759 43.9873 29.3945H6.01273C6.76346 19.5759 14.9925 11.8164 25 11.8164ZM28.8269 44.043H21.1731L23.1262 38.1836H26.8738L28.8269 44.043ZM41.6729 35.2539H8.3271L6.86226 32.3242H43.1377L41.6729 35.2539Z" fill="#E7DFDD"/>
</svg>
