<?xml version="1.0" encoding="iso-8859-1"?>
<!-- Generator: Adobe Illustrator 18.0.0, SVG Export Plug-In . SVG Version: 6.00 Build 0)  -->
<!DOCTYPE svg PUBLIC "-//W3C//DTD SVG 1.1//EN" "http://www.w3.org/Graphics/SVG/1.1/DTD/svg11.dtd">
<svg version="1.1" id="Capa_1" xmlns="http://www.w3.org/2000/svg" xmlns:xlink="http://www.w3.org/1999/xlink" x="0px" y="0px"
	 viewBox="0 0 52.552 52.552" style="enable-background:new 0 0 52.552 52.552;" xml:space="preserve">
<g>
	<path d="M45.551,10.868H38.62c-0.693-3.27-3.601-5.732-7.075-5.732H21.007c-3.473,0-6.382,2.462-7.075,5.732H7.001
		C3.141,10.868,0,14.009,0,17.869v22.546c0,3.86,3.141,7.001,7.001,7.001h38.549c3.861,0,7.001-3.141,7.001-7.001V17.869
		C52.552,14.009,49.412,10.868,45.551,10.868z M49.552,40.415c0,2.206-1.795,4.001-4.001,4.001H7.001
		C4.795,44.416,3,42.621,3,40.415V17.869c0-2.206,1.795-4.001,4.001-4.001h8.275c0.829,0,1.5-0.672,1.5-1.5
		c0-2.333,1.898-4.232,4.231-4.232h10.538c2.333,0,4.231,1.898,4.231,4.232c0,0.828,0.671,1.5,1.5,1.5h8.274
		c2.206,0,4.001,1.795,4.001,4.001V40.415z"/>
	<circle cx="26.276" cy="28.825" r="13.315"/>
</g>
<g>
</g>
<g>
</g>
<g>
</g>
<g>
</g>
<g>
</g>
<g>
</g>
<g>
</g>
<g>
</g>
<g>
</g>
<g>
</g>
<g>
</g>
<g>
</g>
<g>
</g>
<g>
</g>
<g>
</g>
</svg>
