<?xml version="1.0" encoding="iso-8859-1"?>
<!-- Generator: Adobe Illustrator 19.0.0, SVG Export Plug-In . SVG Version: 6.00 Build 0)  -->
<svg version="1.1" id="Capa_1" xmlns="http://www.w3.org/2000/svg" xmlns:xlink="http://www.w3.org/1999/xlink" x="0px" y="0px"
	 viewBox="0 0 512 512" style="enable-background:new 0 0 512 512;" xml:space="preserve">
<g>
	<g>
		<path d="M509.769,134.021c-1.409-1.409-3.366-2.22-5.373-2.22h-49.081L278.802,53.613c0.002-0.13,0.01-0.257,0.01-0.388
			c0-12.578-10.234-22.812-22.812-22.812s-22.812,10.234-22.812,22.812c0,0.131,0.008,0.26,0.01,0.39L56.685,131.801H7.604
			c-1.997,0-3.964,0.811-5.373,2.22C0.811,135.441,0,137.397,0,139.405v70.97c0,4.187,3.406,7.604,7.604,7.604
			c4.187,0,7.604-3.417,7.604-7.604v-63.376h42.988c0.037,0,0.073,0.008,0.11,0.008c0.052,0,0.103-0.007,0.154-0.008h60.455
			c0.081,0.01,0.162,0.03,0.223,0H453.54c0.051,0.001,0.103,0.008,0.154,0.008c0.037,0,0.073-0.008,0.11-0.008h42.988v319.376
			h-25.341v-2.489c0-0.014,0.002-0.026,0.002-0.04c0-20.964-17.055-38.02-38.02-38.02h-32.948l0.007-13.644
			c11.045-5.26,20.838-12.737,28.8-21.851h44.687c4.2,0,7.604-3.404,7.604-7.604v-91.246c0-65.688-53.441-119.129-119.129-119.129
			s-119.129,53.441-119.129,119.129v91.246c0,4.2,3.404,7.604,7.604,7.604h44.707c7.964,9.118,17.76,16.595,28.809,21.855v13.64
			h-32.951c-20.964,0-38.02,17.055-38.02,38.02v2.529h-5.086v-12.667c0-20.964-17.055-38.02-38.02-38.02H197.7l0.007-16.836
			c18.622-16.269,30.405-40.174,30.405-66.78V302.9c5.942-29.887,3.216-52.051-8.113-65.869
			c-7.141-8.71-15.992-12.031-22.303-13.272v-33.654c0-4.2-3.404-7.604-7.604-7.604c-2.885,0-5.842-0.016-8.851-0.032
			c-3.147-0.017-6.35-0.034-9.593-0.034c-36.683,0-77.868,2.321-102.333,30.034c-17.598,19.935-23.692,49.376-18.63,90.003v29.601
			c0,26.612,11.788,50.522,30.417,66.792v16.824h-12.67c-20.964,0-38.02,17.055-38.02,38.02v12.667H15.208V240.791
			c0-4.198-3.417-7.604-7.604-7.604c-4.198,0-7.604,3.406-7.604,7.604v233.188c0,1.997,0.811,3.964,2.231,5.373
			c1.409,1.42,3.376,2.231,5.373,2.231h30.372c0.014,0,0.027,0.002,0.04,0.002s0.026-0.002,0.04-0.002h70.878
			c0.018,0,0.036,0.004,0.054,0.004c0.028,0,0.056-0.004,0.084-0.004h60.659c0.028,0,0.056,0.004,0.084,0.004
			c0.018,0,0.036-0.004,0.053-0.004h70.877c0.014,0,0.027,0.002,0.04,0.002s0.026-0.002,0.04-0.002h263.571
			c1.997,0,3.964-0.811,5.373-2.231c1.42-1.409,2.231-3.376,2.231-5.373V139.405C512,137.397,511.189,135.441,509.769,134.021z
			 M256,45.621c4.193,0,7.604,3.411,7.604,7.604s-3.411,7.604-7.604,7.604s-7.604-3.411-7.604-7.604S251.807,45.621,256,45.621z
			 M119.129,131.801c-0.071,0-0.143,0-0.203,0h-24.69l144.303-63.919c4.188,4.981,10.46,8.154,17.461,8.154
			c7.002,0,13.275-3.174,17.462-8.156l144.304,63.921H119.129z M80.718,222.533c20.275-22.967,57.568-24.89,90.932-24.89
			c3.215,0,6.392,0.017,9.512,0.034c0.444,0.002,0.886,0.004,1.328,0.007v32.975c0,2.099,0.831,4.107,2.361,5.545
			c1.53,1.438,3.549,2.174,5.644,2.049c0.697-0.036,10.719-0.149,17.745,8.422c5.19,6.331,7.78,16.046,7.722,28.642l-3.305-6.611
			c-1.675-3.349-5.542-4.98-9.111-3.844c-0.451,0.144-45.475,14.403-71.495,14.403c-24.927,0-47.483-13.516-47.699-13.647
			c-3.343-2.045-7.694-1.211-10.048,1.926l-10.037,13.383C63.653,255.214,69.162,235.624,80.718,222.533z M65.895,332.072v-27.971
			l16.648-22.197c9.376,4.662,28.392,12.568,49.507,12.568c22.522,0,56.054-9.148,69.875-13.223l10.98,21.96v28.862
			c0,40.516-32.974,73.477-73.505,73.477C98.869,405.55,65.895,372.588,65.895,332.072z M182.495,409.566l-0.004,9.655
			l-23.352,15.57l-12.135-6.061v-8.301C159.796,419.338,171.82,415.522,182.495,409.566z M131.796,420.429v7.853l-16.446,6.578
			l-19.039-15.224v-10.067C106.985,415.524,119.007,419.338,131.796,420.429z M45.62,466.375v-12.667
			c0-12.578,10.234-22.812,22.812-22.812H83.56l14.192,35.479H45.62z M164.669,466.375h-50.536v0l-7.655-19.139l2.836,2.267
			c0.067,0.053,0.143,0.089,0.211,0.141c0.215,0.159,0.435,0.307,0.663,0.443c0.138,0.082,0.274,0.162,0.415,0.235
			c0.218,0.111,0.442,0.206,0.667,0.295c0.152,0.059,0.3,0.125,0.454,0.174c0.251,0.081,0.507,0.139,0.765,0.194
			c0.129,0.028,0.254,0.066,0.383,0.087c0.392,0.062,0.79,0.099,1.192,0.099c0.265,0,0.531-0.018,0.798-0.046
			c0.047-0.006,0.093-0.015,0.141-0.021c0.209-0.026,0.417-0.059,0.626-0.103c0.085-0.019,0.169-0.041,0.254-0.061
			c0.163-0.041,0.327-0.085,0.489-0.138c0.106-0.034,0.211-0.07,0.316-0.109c0.065-0.024,0.133-0.042,0.198-0.068l22.17-8.867
			l17.094,8.539c0.007,0.003,0.013,0.007,0.02,0.01l0.121,0.06c0.104,0.052,0.212,0.089,0.317,0.136
			c0.151,0.067,0.3,0.139,0.455,0.195c0.182,0.067,0.367,0.119,0.552,0.171c0.098,0.028,0.194,0.062,0.293,0.086
			c0.268,0.065,0.538,0.113,0.807,0.149c0.023,0.002,0.046,0.008,0.068,0.012c0.301,0.036,0.601,0.055,0.9,0.055
			c0.357,0,0.712-0.027,1.063-0.076c0.152-0.022,0.303-0.064,0.454-0.095c0.196-0.04,0.392-0.073,0.584-0.128
			c0.152-0.045,0.302-0.107,0.453-0.161c0.19-0.068,0.381-0.133,0.566-0.216c0.133-0.059,0.261-0.134,0.392-0.202
			c0.199-0.104,0.396-0.209,0.585-0.33c0.041-0.027,0.085-0.044,0.126-0.071l10.032-6.689L164.669,466.375z M233.181,466.375
			h-52.132l14.192-35.479h15.128c12.579,0,22.812,10.234,22.812,22.812V466.375z M258.534,375.125L258.534,375.125v-83.643
			c0-57.302,46.619-103.921,103.921-103.921s103.921,46.619,103.921,103.921v83.642h-26.377
			c7.117-12.756,11.179-27.438,11.179-43.052v-40.504c0-0.032,0-0.062,0-0.094c-0.005-22.181-8.192-42.485-21.701-58.053
			c-0.31-0.434-0.662-0.828-1.047-1.178c-16.251-18.076-39.803-29.463-65.966-29.463c-48.917,0-88.713,39.796-88.713,88.713
			c0,0.007,0.001,0.013,0.001,0.02v40.56c0,15.614,4.062,30.295,11.179,43.052H258.534z M421.069,247.187
			c7.055,9.31,11.941,20.345,13.913,32.35l-43.985-18.839L421.069,247.187z M289,289.856c0.875-39.776,33.481-71.869,73.463-71.869
			c18.114,0,34.707,6.599,47.534,17.503L289,289.856z M288.959,332.072v-25.526l83.186-37.377l63.824,27.337v35.566
			c0,40.515-32.974,73.475-73.505,73.475S288.959,372.587,288.959,332.072z M294.03,466.376h-25.347v-2.529
			c0-12.579,10.234-22.812,22.812-22.812h2.535V466.376z M415.688,466.377h-106.45v-25.341h22.812c4.2,0,7.604-3.404,7.604-7.604
			V417.78c7.281,1.936,14.926,2.975,22.81,2.975c7.886,0,15.534-1.04,22.817-2.979l-0.007,15.651v0.001c0,0.001,0,0.002,0,0.002
			c0,0.129,0.013,0.254,0.019,0.381c0.007,0.132,0.007,0.264,0.02,0.395c0.012,0.117,0.036,0.231,0.054,0.347
			c0.02,0.137,0.035,0.275,0.062,0.408c0.024,0.117,0.058,0.23,0.088,0.345c0.033,0.129,0.059,0.258,0.099,0.384
			c0.042,0.135,0.095,0.263,0.144,0.394c0.038,0.101,0.07,0.205,0.112,0.305c0.076,0.18,0.164,0.354,0.253,0.527
			c0.023,0.044,0.042,0.092,0.065,0.137c1.051,1.937,2.92,3.365,5.142,3.824c0.003,0.001,0.006,0.002,0.01,0.003
			c0.194,0.041,0.393,0.066,0.592,0.091c0.055,0.007,0.109,0.019,0.164,0.025c0.151,0.016,0.308,0.018,0.462,0.024
			c0.105,0.004,0.208,0.016,0.314,0.016c0.001,0,0.002,0,0.003,0h22.811V466.377z M456.244,463.847v2.529h-25.347v-25.341h2.537
			c12.569,0,22.797,10.219,22.811,22.786C456.245,463.829,456.244,463.838,456.244,463.847z"/>
	</g>
</g>
<g>
</g>
<g>
</g>
<g>
</g>
<g>
</g>
<g>
</g>
<g>
</g>
<g>
</g>
<g>
</g>
<g>
</g>
<g>
</g>
<g>
</g>
<g>
</g>
<g>
</g>
<g>
</g>
<g>
</g>
</svg>
