<svg width="50" height="50" viewBox="0 0 50 50" fill="none" xmlns="http://www.w3.org/2000/svg">
<path d="M49.7821 13.088C49.6445 12.9504 49.4534 12.8712 49.2574 12.8712H44.4644L27.2268 5.23566C27.227 5.22296 27.2277 5.21056 27.2277 5.19777C27.2277 3.96945 26.2283 2.97003 25 2.97003C23.7717 2.97003 22.7723 3.96945 22.7723 5.19777C22.7723 5.21056 22.773 5.22316 22.7732 5.23585L5.53564 12.8712H0.742578C0.547559 12.8712 0.355469 12.9504 0.217871 13.088C0.0791992 13.2267 0 13.4177 0 13.6138V20.5444C0 20.9533 0.332617 21.287 0.742578 21.287C1.15146 21.287 1.48516 20.9533 1.48516 20.5444V14.3554H5.6832C5.68682 14.3554 5.69033 14.3562 5.69395 14.3562C5.69902 14.3562 5.704 14.3555 5.70898 14.3554H11.6128C11.6207 14.3564 11.6286 14.3583 11.6346 14.3554H44.291C44.296 14.3555 44.3011 14.3562 44.3061 14.3562C44.3097 14.3562 44.3132 14.3554 44.3168 14.3554H48.5148V45.5444H46.0401V45.3014C46.0401 45.3 46.0403 45.2988 46.0403 45.2975C46.0403 43.2502 44.3748 41.5846 42.3274 41.5846H39.1099L39.1105 40.2522C40.1892 39.7385 41.1455 39.0083 41.923 38.1183H46.287C46.6972 38.1183 47.0296 37.7859 47.0296 37.3757V28.465C47.0296 22.0501 41.8107 16.8313 35.3959 16.8313C28.9811 16.8313 23.7622 22.0501 23.7622 28.465V37.3757C23.7622 37.7859 24.0946 38.1183 24.5048 38.1183H28.8707C29.6484 39.0087 30.6051 39.7389 31.6841 40.2526V41.5846H28.4662C26.4189 41.5846 24.7533 43.2501 24.7533 45.2975V45.5444H24.2566V44.3074C24.2566 42.2602 22.5911 40.5945 20.5437 40.5945H19.3066L19.3073 38.9504C21.1259 37.3616 22.2766 35.0272 22.2766 32.4289V29.5801C22.8568 26.6614 22.5906 24.497 21.4843 23.1476C20.7869 22.297 19.9226 21.9727 19.3062 21.8515V18.565C19.3062 18.1548 18.9738 17.8224 18.5637 17.8224C18.2819 17.8224 17.9932 17.8208 17.6993 17.8193C17.392 17.8176 17.0792 17.8159 16.7625 17.8159C13.1802 17.8159 9.1582 18.0426 6.76904 20.7489C5.05049 22.6957 4.45537 25.5708 4.94971 29.5383V32.429C4.94971 35.0278 6.10088 37.3628 7.92012 38.9517V40.5946H6.68281C4.63555 40.5946 2.96992 42.2602 2.96992 44.3075V45.5445H1.48516V23.5148C1.48516 23.1048 1.15146 22.7722 0.742578 22.7722C0.332617 22.7722 0 23.1048 0 23.5148V46.287C0 46.482 0.0791992 46.6741 0.217871 46.8117C0.355469 46.9504 0.547559 47.0296 0.742578 47.0296H3.70859C3.70996 47.0296 3.71123 47.0298 3.7125 47.0298C3.71377 47.0298 3.71504 47.0296 3.71641 47.0296H10.6381C10.6398 47.0296 10.6416 47.03 10.6434 47.03C10.6461 47.03 10.6488 47.0296 10.6516 47.0296H16.5753C16.578 47.0296 16.5808 47.03 16.5835 47.03C16.5853 47.03 16.587 47.0296 16.5887 47.0296H23.5103C23.5116 47.0296 23.5129 47.0298 23.5142 47.0298C23.5154 47.0298 23.5167 47.0296 23.5181 47.0296H49.2574C49.4524 47.0296 49.6445 46.9504 49.7821 46.8117C49.9208 46.6741 50 46.482 50 46.287V13.6138C50 13.4177 49.9208 13.2267 49.7821 13.088ZM25 4.45519C25.4095 4.45519 25.7426 4.78829 25.7426 5.19777C25.7426 5.60724 25.4095 5.94034 25 5.94034C24.5905 5.94034 24.2574 5.60724 24.2574 5.19777C24.2574 4.78829 24.5905 4.45519 25 4.45519ZM11.6337 12.8712C11.6268 12.8712 11.6197 12.8712 11.6139 12.8712H9.20273L23.2948 6.62911C23.7038 7.11554 24.3163 7.4254 25 7.4254C25.6838 7.4254 26.2964 7.11544 26.7053 6.62892L40.7975 12.8712H11.6337ZM7.88262 21.7318C9.8626 19.4889 13.5045 19.3011 16.7627 19.3011C17.0767 19.3011 17.3869 19.3027 17.6916 19.3044C17.735 19.3046 17.7781 19.3048 17.8213 19.3051V22.5253C17.8213 22.7303 17.9024 22.9264 18.0519 23.0668C18.2013 23.2072 18.3984 23.2791 18.603 23.2669C18.6711 23.2634 19.6498 23.2524 20.3359 24.0894C20.8428 24.7076 21.0957 25.6564 21.09 26.8864L20.7673 26.2408C20.6037 25.9138 20.2261 25.7545 19.8775 25.8654C19.8335 25.8795 15.4366 27.272 12.8956 27.272C10.4613 27.272 8.25859 25.9521 8.2375 25.9393C7.91104 25.7396 7.48613 25.821 7.25625 26.1274L6.27607 27.4343C6.21611 24.9233 6.7541 23.0102 7.88262 21.7318ZM6.43506 32.4289V29.6974L8.06084 27.5297C8.97647 27.985 10.8335 28.757 12.8955 28.757C15.0949 28.757 18.3695 27.8637 19.7192 27.4657L20.7915 29.6103V32.4288C20.7915 36.3855 17.5714 39.6043 13.6133 39.6043C9.65518 39.6045 6.43506 36.3856 6.43506 32.4289ZM17.8218 39.9967L17.8214 40.9396L15.5409 42.4601L14.3559 41.8682V41.0575C15.6051 40.951 16.7793 40.5783 17.8218 39.9967ZM12.8707 41.0575V41.8244L11.2646 42.4668L9.40537 40.9801V39.997C10.4478 40.5785 11.6218 40.951 12.8707 41.0575ZM4.45508 45.5444V44.3074C4.45508 43.0791 5.45449 42.0797 6.68281 42.0797H8.16016L9.54609 45.5444H4.45508ZM16.081 45.5444H11.1458L10.3982 43.6754L10.6752 43.8968C10.6817 43.902 10.6892 43.9055 10.6958 43.9106C10.7168 43.9261 10.7383 43.9405 10.7605 43.9538C10.774 43.9618 10.7873 43.9696 10.8011 43.9768C10.8224 43.9876 10.8442 43.9969 10.8662 44.0056C10.8811 44.0113 10.8955 44.0178 10.9105 44.0226C10.9351 44.0305 10.9601 44.0361 10.9853 44.0415C10.9979 44.0443 11.0101 44.048 11.0227 44.05C11.0609 44.0561 11.0998 44.0597 11.1391 44.0597C11.1649 44.0597 11.1909 44.0579 11.217 44.0552C11.2216 44.0546 11.2261 44.0537 11.2308 44.0531C11.2512 44.0506 11.2715 44.0474 11.2919 44.0431C11.3002 44.0412 11.3084 44.0391 11.3167 44.0371C11.3326 44.0331 11.3486 44.0288 11.3645 44.0236C11.3748 44.0203 11.3851 44.0168 11.3953 44.013C11.4017 44.0107 11.4083 44.0089 11.4146 44.0064L13.5797 43.1404L15.249 43.9743C15.2497 43.9746 15.2503 43.975 15.251 43.9753L15.2628 43.9812C15.2729 43.9862 15.2835 43.9899 15.2937 43.9944C15.3085 44.001 15.323 44.008 15.3382 44.0135C15.356 44.02 15.374 44.0251 15.3921 44.0302C15.4017 44.0329 15.411 44.0362 15.4207 44.0386C15.4469 44.0449 15.4732 44.0496 15.4995 44.0531C15.5018 44.0533 15.504 44.0539 15.5062 44.0543C15.5355 44.0578 15.5648 44.0597 15.594 44.0597C15.6289 44.0597 15.6636 44.057 15.6979 44.0523C15.7127 44.0501 15.7274 44.046 15.7422 44.043C15.7613 44.0391 15.7805 44.0359 15.7992 44.0305C15.8141 44.0261 15.8287 44.02 15.8435 44.0148C15.862 44.0081 15.8807 44.0018 15.8987 43.9937C15.9117 43.9879 15.9242 43.9806 15.937 43.9739C15.9564 43.9638 15.9757 43.9535 15.9941 43.9417C15.9981 43.9391 16.0024 43.9374 16.0064 43.9348L16.9861 43.2816L16.081 45.5444ZM22.7716 45.5444H17.6806L19.0665 42.0797H20.5438C21.7723 42.0797 22.7716 43.0791 22.7716 44.3074V45.5444ZM25.2475 36.6333V28.4651C25.2475 22.8692 29.8001 18.3165 35.396 18.3165C40.9919 18.3165 45.5445 22.8692 45.5445 28.4651V36.6332H42.9687C43.6637 35.3875 44.0604 33.9537 44.0604 32.4289V28.4734C44.0604 28.4703 44.0604 28.4674 44.0604 28.4643C44.0599 26.2982 43.2603 24.3153 41.9411 22.795C41.9108 22.7526 41.8765 22.7142 41.8389 22.68C40.2519 20.9148 37.9519 19.8027 35.3969 19.8027C30.6198 19.8027 26.7335 23.6891 26.7335 28.4661C26.7335 28.4668 26.7336 28.4674 26.7336 28.4681V32.429C26.7336 33.9538 27.1303 35.3875 27.8253 36.6333H25.2475ZM41.12 24.1394C41.809 25.0485 42.2861 26.1262 42.4787 27.2985L38.1833 25.4588L41.12 24.1394ZM28.2227 28.3063C28.3081 24.4219 31.4923 21.2878 35.3968 21.2878C37.1657 21.2878 38.7861 21.9322 40.0388 22.9971L28.2227 28.3063ZM28.2187 32.4289V29.9361L36.3423 26.286L42.5751 28.9557V32.4289C42.5751 36.3855 39.355 39.6042 35.3969 39.6042C31.4388 39.6042 28.2187 36.3855 28.2187 32.4289ZM28.7139 45.5445H26.2386V45.2976C26.2386 44.0692 27.238 43.0698 28.4663 43.0698H28.7139V45.5445ZM40.5945 45.5446H30.199V43.0699H32.4268C32.8369 43.0699 33.1693 42.7375 33.1693 42.3274V40.7988C33.8804 40.9879 34.627 41.0894 35.3969 41.0894C36.167 41.0894 36.9139 40.9878 37.6251 40.7985L37.6244 42.3269V42.327C37.6244 42.3271 37.6244 42.3272 37.6244 42.3272C37.6244 42.3398 37.6257 42.352 37.6263 42.3644C37.627 42.3773 37.627 42.3901 37.6282 42.4029C37.6294 42.4144 37.6317 42.4255 37.6335 42.4368C37.6354 42.4502 37.6369 42.4637 37.6395 42.4767C37.6419 42.4881 37.6452 42.4991 37.6481 42.5104C37.6514 42.523 37.6539 42.5356 37.6578 42.5479C37.6619 42.561 37.6671 42.5736 37.6719 42.5863C37.6756 42.5962 37.6787 42.6064 37.6828 42.6161C37.6902 42.6337 37.6988 42.6507 37.7075 42.6676C37.7098 42.6719 37.7116 42.6766 37.7139 42.681C37.8165 42.8701 37.999 43.0096 38.216 43.0544C38.2163 43.0545 38.2166 43.0546 38.217 43.0547C38.2359 43.0587 38.2554 43.0611 38.2748 43.0636C38.2802 43.0643 38.2854 43.0654 38.2908 43.066C38.3056 43.0676 38.3209 43.0678 38.3359 43.0684C38.3462 43.0688 38.3563 43.0699 38.3666 43.0699C38.3667 43.0699 38.3668 43.0699 38.3669 43.0699H40.5945V45.5446ZM44.5551 45.2976V45.5445H42.0798V43.0698H42.3275C43.555 43.0698 44.5538 44.0678 44.5552 45.295C44.5552 45.2958 44.5551 45.2967 44.5551 45.2976Z" fill="#E7DFDD"/>
</svg>
