<svg width="57" height="34" viewBox="0 0 57 34" fill="none" xmlns="http://www.w3.org/2000/svg">
<path d="M45.6284 27.5025V16.8171C45.6284 15.6769 46.2747 14.6352 47.2964 14.129L56.2314 9.7015C56.4144 9.6095 56.5224 9.4185 56.5054 9.2145C56.4894 9.0105 56.3544 8.8375 56.1574 8.7765L28.4014 0.0225C28.3034 -0.0075 28.2004 -0.0075 28.1004 0.0225L0.349372 8.7755C0.154372 8.8375 0.0163724 9.0105 0.00137239 9.2135C-0.0136276 9.4165 0.0953724 9.6095 0.277372 9.7005L4.39615 11.741C5.41792 12.2472 6.06437 13.2889 6.06437 14.4292V22.1423C6.06437 23.3154 5.35903 24.4813 4.95031 25.5809C4.50581 26.7767 4.29437 28.4763 4.29437 30.1085C4.29437 30.3825 4.51837 30.6085 4.79437 30.6085C5.07037 30.6085 5.29437 30.3825 5.29437 30.1085C5.29437 28.9683 6.06437 29.0523 6.06437 30.1925C6.06437 30.4675 6.28837 30.6925 6.56437 30.6925C6.84037 30.6925 7.06437 30.4675 7.06437 30.1925C7.06437 29.2716 7.71137 29.1876 7.71137 30.1085C7.71137 30.3855 7.93537 30.6085 8.21137 30.6085C8.48737 30.6085 8.71137 30.3855 8.71137 30.1085C8.71137 28.4347 8.48977 26.6889 8.02237 25.4887C7.64143 24.5105 7.06437 23.4882 7.06437 22.4384V16.1375C7.06437 14.7227 8.55089 13.8005 9.81847 14.429C10.4677 14.7509 10.8784 15.4129 10.8784 16.1375V27.5035C10.8784 31.3175 19.8304 33.3785 28.2534 33.3785C36.6764 33.3775 45.6284 31.3195 45.6284 27.5025ZM27.3509 1.3062C27.9383 1.1209 28.5685 1.1209 29.1559 1.30619L47.5665 7.11364C50.1426 7.92626 50.4166 11.463 47.9963 12.6626L44.9804 14.1575C44.8931 14.1866 44.816 14.24 44.7335 14.2809L29.5865 21.7882C28.7471 22.2043 27.7616 22.2043 26.9222 21.7883L11.6494 14.2195C11.6114 14.1945 11.5714 14.1725 11.5274 14.1575C10.4061 13.6023 10.6226 11.9423 11.8487 11.6931L26.9784 8.6185C27.2494 8.5625 27.4234 8.2995 27.3694 8.0285C27.3134 7.7575 27.0494 7.5835 26.7794 7.6385L7.27009 11.6041C6.8574 11.688 6.42853 11.632 6.05119 11.445C4.52217 10.6874 4.69509 8.45307 6.32249 7.9397L27.3509 1.3062ZM28.2534 32.3775C18.6034 32.3775 11.8784 29.8095 11.8784 27.5025V20.2847C11.8784 18.0591 14.2165 16.6084 16.2106 17.5967L28.0314 23.4555C28.1014 23.4895 28.1774 23.5085 28.2544 23.5085C28.3324 23.5085 28.4064 23.4895 28.4774 23.4555L40.2949 17.5972C42.289 16.6087 44.6274 18.0594 44.6274 20.2851V27.5045C44.6284 29.8095 37.9014 32.3775 28.2534 32.3775Z" fill="#E7DFDD"/>
</svg>
