<svg width="50" height="50" viewBox="0 0 50 50" fill="none" xmlns="http://www.w3.org/2000/svg">
<g clip-path="url(#clip0)">
<path d="M25 17.9007C20.606 17.9007 17.0316 21.4753 17.0316 25.8691C17.0316 26.7076 17.7114 27.3874 18.5499 27.3874C19.3884 27.3874 20.0682 26.7076 20.0682 25.8691C20.0682 23.1496 22.2806 20.9372 25.0001 20.9372C25.8386 20.9372 26.5184 20.2574 26.5184 19.4189C26.5183 18.5805 25.8385 17.9007 25 17.9007Z" fill="#E7DFDD"/>
<path d="M48.4817 14.055H39.7603L31.5058 7.08153C31.2318 6.85016 30.8848 6.72311 30.526 6.72311H19.474C19.1154 6.72311 18.7683 6.85016 18.4942 7.08153L10.2399 14.0551H1.5183C0.67982 14.055 0 14.7347 0 15.5733V41.7587C0 42.5971 0.67982 43.277 1.5183 43.277H48.4818C49.3203 43.277 50.0001 42.5971 50.0001 41.7587V15.5733C50 14.7348 49.3201 14.055 48.4817 14.055ZM46.9635 40.2404H3.03652V23.6039H11.7685C11.6428 24.3405 11.5765 25.0971 11.5765 25.869C11.5765 33.2708 17.5982 39.2926 24.9999 39.2926C32.4016 39.2926 38.4237 33.2708 38.4237 25.869C38.4237 25.097 38.3573 24.3405 38.2314 23.6039H46.9634V40.2404H46.9635ZM25 36.2561C19.2726 36.2561 14.6131 31.5966 14.6131 25.869C14.6131 20.1417 19.2726 15.4821 25 15.4821C30.7277 15.4821 35.3872 20.1417 35.3872 25.869C35.3871 31.5966 30.7275 36.2561 25 36.2561ZM3.03652 17.0916H10.7953C11.1539 17.0916 11.5011 16.9645 11.7752 16.733L20.0295 9.75963H29.9703L38.2249 16.733C38.4989 16.9645 38.8459 17.0916 39.2047 17.0916H46.9633V20.5674H37.331C35.2713 15.7948 30.5195 12.4457 24.9998 12.4457C19.4782 12.4457 14.7252 15.797 12.6665 20.5719C12.6372 20.5703 12.6079 20.5675 12.5781 20.5675H3.03652V17.0916Z" fill="#E7DFDD"/>
</g>
<defs>
<clipPath id="clip0">
<rect width="50" height="50" rx="3" fill="white"/>
</clipPath>
</defs>
</svg>
