<svg width="50" height="50" viewBox="0 0 50 50" fill="none" xmlns="http://www.w3.org/2000/svg">
<g clip-path="url(#clip0)">
<path d="M11.6667 26.25V37.0833C11.6667 37.5436 12.0398 37.9167 12.5 37.9167C12.9602 37.9167 13.3333 37.5436 13.3333 37.0833V26.25C13.3333 25.7898 12.9602 25.4167 12.5 25.4167C12.0398 25.4167 11.6667 25.7898 11.6667 26.25Z" fill="#E7DFDD"/>
<path d="M20.8542 26.0625L18.75 35.1825L16.6458 26.0625C16.5788 25.7722 16.3621 25.5397 16.0772 25.4526C15.7923 25.3655 15.4826 25.437 15.2647 25.6401C15.0468 25.8433 14.9538 26.1472 15.0208 26.4375L17.5208 37.2708C17.6082 37.6491 17.9451 37.9169 18.3333 37.9167H19.1667C19.5549 37.9169 19.8918 37.6491 19.9792 37.2708L22.4792 26.4375C22.5827 25.9888 22.3029 25.5411 21.8542 25.4375C21.4054 25.334 20.9577 25.6138 20.8542 26.0625Z" fill="#E7DFDD"/>
<path d="M5 25.4167C4.53976 25.4167 4.16666 25.7898 4.16666 26.25V37.0833C4.16666 37.5436 4.53976 37.9167 5 37.9167H9.16666C9.6269 37.9167 10 37.5436 10 37.0833C10 36.6231 9.6269 36.25 9.16666 36.25H5.83333V26.25C5.83333 25.7898 5.46023 25.4167 5 25.4167Z" fill="#E7DFDD"/>
<path d="M29.1667 27.0833C29.6269 27.0833 30 26.7102 30 26.25C30 25.7898 29.6269 25.4167 29.1667 25.4167H25C24.5398 25.4167 24.1667 25.7898 24.1667 26.25V37.0833C24.1667 37.5436 24.5398 37.9167 25 37.9167H29.1667C29.6269 37.9167 30 37.5436 30 37.0833C30 36.6231 29.6269 36.25 29.1667 36.25H25.8333V32.9167H29.1667C29.6269 32.9167 30 32.5436 30 32.0833C30 31.6231 29.6269 31.25 29.1667 31.25H25.8333V27.0833H29.1667Z" fill="#E7DFDD"/>
<path d="M4.16666 42.0833H32.5C34.4396 42.0869 36.1229 40.7462 36.5533 38.855C36.71 38.18 36.6667 38.75 36.6667 28.4583C36.6667 27.9981 36.2936 27.625 35.8333 27.625C35.3731 27.625 35 27.9981 35 28.4583C35 38.7858 35.03 38.0492 34.93 38.4775C34.6729 39.6124 33.6637 40.4178 32.5 40.4167H4.16666C2.78594 40.4167 1.66665 39.2974 1.66665 37.9167V25.4167C1.66665 24.0359 2.78594 22.9167 4.16666 22.9167H29.4583C29.9186 22.9167 30.2917 22.5436 30.2917 22.0833C30.2917 21.6231 29.9186 21.25 29.4583 21.25H4.16666C1.86661 21.2527 0.00274175 23.1166 -1.33514e-05 25.4167V37.9167C0.00274175 40.2167 1.86661 42.0806 4.16666 42.0833Z" fill="#E7DFDD"/>
<path d="M42.6717 36.1308C43.4186 36.2493 44.1791 36.0239 44.7408 35.5175C48.4811 32.1866 50.4098 27.2724 49.9333 22.2867C49.3468 15.9405 45.0106 10.5655 38.9321 8.64984C32.8536 6.7342 26.2192 8.65183 22.1 13.515C21.489 14.1926 21.2957 15.1493 21.5956 16.011C21.8956 16.8727 22.6411 17.5026 23.5408 17.6543C24.4406 17.8061 25.3515 17.4556 25.9175 16.74C28.5328 13.6597 32.6459 12.2922 36.5849 13.1932C40.524 14.0943 43.6334 17.114 44.6495 21.0249C45.6655 24.9359 44.4191 29.0873 41.4167 31.7917C40.689 32.4295 40.396 33.4307 40.6648 34.3602C40.9337 35.2897 41.7159 35.9799 42.6717 36.1308ZM42.5283 33.0308C45.9964 29.9114 47.4379 25.1196 46.2663 20.6045C45.0948 16.0894 41.5055 12.6029 36.9582 11.5632C32.411 10.5234 27.6632 12.1035 24.6458 15.6608C24.4425 15.9073 24.1162 16.0158 23.8058 15.9402C23.4954 15.8646 23.2555 15.6182 23.1883 15.3058C23.1358 15.0525 23.2028 14.7891 23.37 14.5917C27.0548 10.2399 32.9905 8.52335 38.4292 10.2366C43.868 11.9499 47.7481 16.7587 48.2733 22.4367C48.7003 26.8981 46.975 31.2958 43.6283 34.2767C43.4101 34.5007 43.0849 34.5837 42.7861 34.4916C42.4872 34.3995 42.2651 34.1479 42.2108 33.84C42.1564 33.532 42.279 33.2196 42.5283 33.0308Z" fill="#E7DFDD"/>
<path d="M37.395 28.9167C37.8154 29.6418 38.5712 30.1081 39.4079 30.1584C40.2446 30.2086 41.0508 29.8363 41.555 29.1667C44.2059 25.5334 43.8293 20.5135 40.666 17.3164C37.5026 14.1193 32.4871 13.6895 28.8258 16.3017C28.1288 16.8189 27.7513 17.6616 27.8294 18.526C27.9075 19.3905 28.4299 20.1519 29.2083 20.5358C30.0151 20.9572 30.9897 20.8929 31.7342 20.3692C33.3985 19.179 35.6808 19.3734 37.1199 20.828C38.5589 22.2826 38.7288 24.5668 37.5208 26.2183C36.9434 27.0118 36.8939 28.0729 37.395 28.9167ZM34.8475 17.955C33.399 17.7868 31.9399 18.1654 30.7558 19.0167C30.5043 19.1648 30.1941 19.1723 29.9357 19.0366C29.6773 18.9009 29.5074 18.6411 29.4867 18.35C29.4608 18.081 29.5794 17.8184 29.7983 17.66C32.7925 15.506 36.9088 15.8504 39.5034 18.472C42.098 21.0936 42.3998 25.2132 40.215 28.185C40.0438 28.4043 39.7745 28.5237 39.497 28.5032C39.2196 28.4828 38.9706 28.3253 38.8333 28.0833C38.6688 27.8134 38.6783 27.472 38.8575 27.2117C40.0916 25.5392 40.3426 23.3365 39.5164 21.4293C38.6902 19.5221 36.9116 18.1986 34.8475 17.955Z" fill="#E7DFDD"/>
<path d="M31.6667 23.75C31.6667 25.1307 32.786 26.25 34.1667 26.25C35.5474 26.25 36.6667 25.1307 36.6667 23.75C36.6667 22.3693 35.5474 21.25 34.1667 21.25C32.786 21.25 31.6667 22.3693 31.6667 23.75ZM35 23.75C35 24.2102 34.6269 24.5833 34.1667 24.5833C33.7064 24.5833 33.3333 24.2102 33.3333 23.75C33.3333 23.2898 33.7064 22.9167 34.1667 22.9167C34.6269 22.9167 35 23.2898 35 23.75Z" fill="#E7DFDD"/>
</g>
<defs>
<clipPath id="clip0">
<rect width="50" height="50" rx="3" fill="white"/>
</clipPath>
</defs>
</svg>
