<svg width="50" height="50" viewBox="0 0 50 50" fill="none" xmlns="http://www.w3.org/2000/svg">
<path d="M0.961744 21.1822C0.430254 21.1822 0 21.6124 0 22.1434V26.951C0 27.4825 0.430254 27.9127 0.961744 27.9127C1.49268 27.9127 1.92294 27.4825 1.92294 26.951V22.1434C1.92294 21.6124 1.49268 21.1822 0.961744 21.1822Z" fill="#E7DFDD"/>
<path d="M5.71486 17.245C5.18392 17.245 4.75311 17.6758 4.75311 18.2067V31.5193C4.75311 32.0508 5.18392 32.481 5.71486 32.481C6.2458 32.481 6.6766 32.0508 6.6766 31.5193V18.2067C6.6766 17.6758 6.2458 17.245 5.71486 17.245Z" fill="#E7DFDD"/>
<path d="M10.4685 10.6052C9.93761 10.6052 9.50681 11.0355 9.50681 11.5664V38.4897C9.50681 39.0207 9.93761 39.4515 10.4685 39.4515C10.9995 39.4515 11.4303 39.0207 11.4303 38.4897V11.5664C11.4303 11.0355 10.9995 10.6052 10.4685 10.6052Z" fill="#E7DFDD"/>
<path d="M15.2222 15.4128C14.6913 15.4128 14.2605 15.8431 14.2605 16.3746V32.7204C14.2605 33.2513 14.6913 33.6821 15.2222 33.6821C15.7532 33.6821 16.184 33.2513 16.184 32.7204V16.3746C16.184 15.8431 15.7532 15.4128 15.2222 15.4128Z" fill="#E7DFDD"/>
<path d="M29.4816 13.0849C28.9507 13.0849 28.5204 13.5152 28.5204 14.0467V35.6799C28.5204 36.2108 28.9507 36.6411 29.4816 36.6411C30.0126 36.6411 30.4434 36.2108 30.4434 35.6799V14.0467C30.4434 13.5152 30.0126 13.0849 29.4816 13.0849Z" fill="#E7DFDD"/>
<path d="M38.9884 14.4511C38.4575 14.4511 38.0267 14.8819 38.0267 15.4128V34.6433C38.0267 35.1748 38.4575 35.605 38.9884 35.605C39.5194 35.605 39.9496 35.1748 39.9496 34.6433V15.4128C39.9496 14.8819 39.5194 14.4511 38.9884 14.4511Z" fill="#E7DFDD"/>
<path d="M43.7415 19.2587C43.2106 19.2587 42.7798 19.6895 42.7798 20.2204V29.8357C42.7798 30.3666 43.2106 30.7974 43.7415 30.7974C44.2725 30.7974 44.7027 30.3666 44.7027 29.8357V20.2204C44.7027 19.6895 44.2725 19.2587 43.7415 19.2587Z" fill="#E7DFDD"/>
<path d="M34.2353 6.75877C33.7038 6.75877 33.2736 7.18958 33.2736 7.72052V42.3356C33.2736 42.8671 33.7038 43.2973 34.2353 43.2973C34.7662 43.2973 35.1965 42.8671 35.1965 42.3356V7.72052C35.1965 7.18958 34.7662 6.75877 34.2353 6.75877Z" fill="#E7DFDD"/>
<path d="M19.9754 22.1434C19.4444 22.1434 19.0142 22.5742 19.0142 23.1051V26.951C19.0142 27.4825 19.4444 27.9128 19.9754 27.9128C20.5063 27.9128 20.9371 27.4825 20.9371 26.951V23.1051C20.9371 22.5742 20.5063 22.1434 19.9754 22.1434Z" fill="#E7DFDD"/>
<path d="M48.4946 21.8215C47.9637 21.8215 47.5329 22.2518 47.5329 22.7827V26.9433C47.5329 27.4742 47.9637 27.905 48.4946 27.905C49.0256 27.905 49.4564 27.4742 49.4564 26.9433V22.7827C49.4564 22.2518 49.0256 21.8215 48.4946 21.8215Z" fill="#E7DFDD"/>
<path d="M24.7291 19.9883C24.1976 19.9883 23.7673 20.4185 23.7673 20.9494V28.7765C23.7673 29.3075 24.1976 29.7383 24.7291 29.7383C25.26 29.7383 25.6902 29.3075 25.6902 28.7765V20.9494C25.6902 20.4185 25.26 19.9883 24.7291 19.9883Z" fill="#E7DFDD"/>
</svg>
